<!DOCTYPE svg PUBLIC "-//W3C//DTD SVG 1.1//EN" "http://www.w3.org/Graphics/SVG/1.1/DTD/svg11.dtd">
<!-- Uploaded to: SVG Repo, www.svgrepo.com, Transformed by: SVG Repo Mixer Tools -->
<svg version="1.1" id="Layer_1" xmlns="http://www.w3.org/2000/svg" xmlns:xlink="http://www.w3.org/1999/xlink" viewBox="0 0 494.46 494.46" xml:space="preserve" width="800px" height="800px" fill="#000000">
<g id="SVGRepo_bgCarrier" stroke-width="0"/>
<g id="SVGRepo_tracerCarrier" stroke-linecap="round" stroke-linejoin="round"/>
<g id="SVGRepo_iconCarrier"> <g> <rect x="56.969" y="76.969" transform="matrix(0.7071 0.7071 -0.7071 0.7071 96.9698 -40.1662)" style="fill:#FFDA44;" width="80.001" height="40.001"/> <rect x="147.68" y="27.68" style="fill:#FFDA44;" width="40" height="80"/> <rect x="27.68" y="147.68" style="fill:#FFDA44;" width="80" height="40"/> <rect x="357.49" y="377.49" transform="matrix(-0.7071 -0.7071 0.7071 -0.7071 397.4902 959.6265)" style="fill:#FFCD00;" width="80.001" height="40.001"/> <rect x="306.78" y="386.78" style="fill:#FFCD00;" width="40" height="80"/> <rect x="386.78" y="306.78" style="fill:#FFCD00;" width="80" height="40"/> <path style="fill:#005ECE;" d="M355.06,270.21l28.29,28.29l72.3-72.31c25.03-25.02,38.81-58.3,38.81-93.69 c0-35.39-13.78-68.66-38.81-93.69L427.37,67.1c17.47,17.47,27.09,40.69,27.09,65.4c0,24.71-9.62,47.94-27.1,65.41L355.06,270.21z"/> <path style="fill:#2488FF;" d="M361.96,0c-35.39,0-68.67,13.78-93.69,38.81l-72.31,72.3l28.29,28.29l72.3-72.31 C314.02,49.62,337.25,40,361.96,40s47.92,9.62,65.4,27.1c0.01,0,28.29-28.29,28.29-28.29C430.62,13.78,397.35,0,361.96,0z"/> <path style="fill:#005ECE;" d="M197.91,427.37c-17.47,17.47-40.7,27.09-65.41,27.09s-47.92-9.62-65.4-27.1l-28.29,28.29 c25.03,25.03,58.3,38.81,93.69,38.81c35.39,0,68.67-13.78,93.69-38.81l72.31-72.3l-28.29-28.29L197.91,427.37z"/> <path style="fill:#2488FF;" d="M67.09,427.36C49.62,409.89,40,386.67,40,361.96s9.62-47.94,27.1-65.41l72.3-72.3l-28.29-28.29 l-72.3,72.31C13.78,293.29,0,326.57,0,361.96s13.78,68.66,38.81,93.69C38.81,455.65,67.1,427.36,67.09,427.36z"/> </g> </g>
</svg>