<svg width="117" height="97" viewBox="0 0 117 97" fill="none" xmlns="http://www.w3.org/2000/svg">
<path fill-rule="evenodd" clip-rule="evenodd" d="M5.37331 3.47812C0.530763 6.80409 0.530762 12.1572 0.530762 22.8635V73.9641C0.530762 84.6702 0.530763 90.0233 5.37331 93.3493C10.2158 96.6754 18.0097 96.6754 33.5976 96.6754H83.1978C98.7855 96.6754 106.579 96.6754 111.422 93.3493C116.265 90.0233 116.265 84.6702 116.265 73.9641V22.8635C116.265 12.1572 116.265 6.80409 111.422 3.47812C106.579 0.152101 98.7855 0.1521 83.1978 0.1521H33.5976C18.0097 0.1521 10.2158 0.152101 5.37331 3.47812ZM33.5976 22.8635C29.032 22.8635 25.3309 25.4056 25.3309 28.5413C25.3309 31.6771 29.032 34.2192 33.5976 34.2192H83.1978C87.7635 34.2192 91.4645 31.6771 91.4645 28.5413C91.4645 25.4056 87.7635 22.8635 83.1978 22.8635H33.5976ZM33.5976 45.5748C29.032 45.5748 25.3309 48.1168 25.3309 51.2527C25.3309 54.3886 29.032 56.9305 33.5976 56.9305H83.1978C87.7635 56.9305 91.4645 54.3886 91.4645 51.2527C91.4645 48.1168 87.7635 45.5748 83.1978 45.5748H33.5976ZM33.5976 68.2862C29.032 68.2862 25.3309 70.8282 25.3309 73.9641C25.3309 77.0999 29.032 79.6419 33.5976 79.6419H66.6644C71.2301 79.6419 74.9311 77.0999 74.9311 73.9641C74.9311 70.8282 71.2301 68.2862 66.6644 68.2862H33.5976Z" fill="#3D4987"/>
</svg>
