<svg width="120" height="69" viewBox="0 0 120 69" fill="none" xmlns="http://www.w3.org/2000/svg">
<g clip-path="url(#clip0_38_64)">
<path d="M103.948 66.1957H15.8365C7.33561 66.1957 0.380127 62.2157 0.380127 57.3513V25.9463C0.380127 21.0819 7.33561 17.1019 15.8365 17.1019H103.948C112.449 17.1019 119.404 21.0819 119.404 25.9463V57.3513C119.404 62.2157 112.449 66.1957 103.948 66.1957Z" fill="#13B7E6"/>
<path d="M93.8681 27.0871H86.429V11.5235C86.429 8.78002 82.531 6.54737 77.7366 6.54737H42.0497C37.2553 6.54737 33.3572 8.78002 33.3572 11.5235V27.0871H25.9182V11.5235C25.9182 6.4335 33.1545 2.29065 42.0497 2.29065H77.7366C86.6318 2.29065 93.8681 6.4335 93.8681 11.5235V27.0871Z" fill="black"/>
<path d="M24.9754 47.6407L28.3415 51.2961C29.1989 52.2273 30.0897 53.2159 30.9322 54.2556L31.0047 54.245C30.7704 53.0989 30.6718 51.9314 30.59 50.929L30.2999 46.7244L34.3709 46.0231L38.0234 49.5211C39.0258 50.5129 40.0264 51.5026 40.9395 52.5316L41.0065 52.521C40.6717 51.3919 40.4467 50.2671 40.2514 49.1167L39.6916 45.1069L44.7446 44.2364L44.6535 54.6015L39.8051 55.4379L36.4873 52.3709C35.5909 51.509 34.8358 50.7098 33.8836 49.6009L33.8167 49.6137C34.1328 50.8492 34.2537 51.7814 34.2835 52.7509L34.3783 56.3744L29.5299 57.2087L19.7197 48.5516L24.9754 47.6407Z" fill="white"/>
<path d="M51.3487 43.0956L54.7148 46.7489C55.5722 47.68 56.463 48.6687 57.3055 49.7084L57.378 49.6977C57.1437 48.5516 57.0451 47.3842 56.9633 46.3817L56.6732 42.1772L60.7442 41.4759L64.3967 44.9738C65.3991 45.9656 66.3997 46.9564 67.3128 47.9855L67.3798 47.9727C67.045 46.8436 66.82 45.7209 66.6247 44.5684L66.0649 40.5585L71.1179 39.688L71.0268 50.0542L66.1784 50.8885L62.8606 47.8216C61.9642 46.9596 61.2091 46.1604 60.2569 45.0536L60.19 45.0643C60.5061 46.2998 60.627 47.232 60.6568 48.2015L60.7516 51.825L55.9032 52.6615L46.093 44.0022L51.3487 43.0956Z" fill="white"/>
<path d="M77.7236 38.5494L81.0897 42.2027C81.9471 43.1339 82.8379 44.1225 83.6804 45.1643L83.7529 45.1515C83.5186 44.0054 83.42 42.8391 83.3382 41.8356L83.0481 37.6331L87.1191 36.9318L90.7716 40.4298C91.774 41.4216 92.7746 42.4113 93.6877 43.4403L93.7547 43.4297C93.4199 42.3006 93.1949 41.1758 92.9996 40.0233L92.438 36.0124L97.4909 35.1419L97.3998 45.508L92.5514 46.3445L89.2336 43.2775C88.3372 42.4155 87.5821 41.6153 86.6299 40.5075L86.563 40.5181C86.8792 41.7536 87 42.6858 87.0298 43.6553L87.1246 47.2788L82.2763 48.1153L72.4661 39.456L77.7236 38.5494Z" fill="white"/>
</g>
<defs>
<clipPath id="clip0_38_64">
<rect width="119.024" height="68.1075" fill="white" transform="translate(0.380127 0.189423)"/>
</clipPath>
</defs>
</svg>
