<svg width="581" height="91" viewBox="0 0 581 91" fill="none" xmlns="http://www.w3.org/2000/svg">
<path d="M0.783447 0.0173035H580.096L528.723 45.3051L580.096 90.5929H0.783447L40.6795 45.3051L0.783447 0.0173035Z" fill="white"/>
<path d="M227.342 23.2226C228.676 23.2017 229.769 23.4413 230.624 23.9413C231.499 24.4413 232.207 25.0351 232.749 25.7226C233.29 26.4101 233.707 27.108 233.999 27.8163C234.29 28.5038 234.519 29.0455 234.686 29.4413C234.728 29.5455 234.811 29.6809 234.936 29.8476C235.04 29.9934 235.186 30.1705 235.374 30.3788C235.582 30.5663 235.842 30.7851 236.155 31.0351C235.509 31.0559 234.936 31.0767 234.436 31.0976C233.936 31.0976 233.509 31.108 233.155 31.1288C232.759 31.1496 232.405 31.1705 232.092 31.1913C231.78 31.2121 231.394 31.2434 230.936 31.2851C230.519 31.3267 230.009 31.3684 229.405 31.4101C228.801 31.4517 228.061 31.5142 227.186 31.5976C227.707 30.9726 228.113 30.4205 228.405 29.9413C228.717 29.4413 228.946 29.0038 229.092 28.6288C229.259 28.233 229.353 27.8892 229.374 27.5976C229.415 27.3059 229.405 27.0559 229.342 26.8476C229.217 26.3684 228.894 26.0246 228.374 25.8163C226.874 25.3996 225.561 25.733 224.436 26.8163C223.332 27.8788 222.54 29.6288 222.061 32.0663C221.832 33.2746 221.613 34.5351 221.405 35.8476C221.217 37.1392 221.144 38.3267 221.186 39.4101C221.228 40.4726 221.436 41.3371 221.811 42.0038C222.186 42.6705 222.832 42.983 223.749 42.9413C224.644 42.8996 225.405 42.7538 226.03 42.5038C226.655 42.233 227.155 41.9205 227.53 41.5663C227.905 41.1913 228.165 40.7955 228.311 40.3788C228.478 39.9413 228.54 39.5351 228.499 39.1601C228.415 38.8684 228.196 38.5559 227.842 38.2226C227.53 37.9309 227.061 37.608 226.436 37.2538C225.811 36.8788 224.915 36.4934 223.749 36.0976C224.853 36.0351 225.759 35.9934 226.467 35.9726C227.196 35.9309 227.769 35.8892 228.186 35.8476C228.686 35.8059 229.071 35.7746 229.342 35.7538C229.592 35.733 229.957 35.7121 230.436 35.6913C230.853 35.6705 231.384 35.6601 232.03 35.6601C232.696 35.6601 233.53 35.6496 234.53 35.6288C234.155 36.0038 233.863 36.3476 233.655 36.6601C233.551 36.8267 233.457 36.9726 233.374 37.0976C233.29 37.3059 233.259 37.733 233.28 38.3788C233.28 38.9205 233.321 39.7226 233.405 40.7851C233.488 41.8267 233.644 43.2538 233.874 45.0663L229.717 45.6288L229.905 41.4101C229.426 42.5559 228.821 43.4101 228.092 43.9726C227.384 44.5351 226.707 44.9309 226.061 45.1601C225.29 45.4309 224.488 45.5559 223.655 45.5351C222.571 45.4309 221.488 45.1809 220.405 44.7851C219.321 44.3892 218.363 43.7851 217.53 42.9726C216.696 42.1392 216.051 41.0663 215.592 39.7538C215.155 38.4413 215.019 36.8163 215.186 34.8788C215.374 32.9413 215.832 31.2538 216.561 29.8163C217.311 28.358 218.238 27.1496 219.342 26.1913C220.446 25.233 221.686 24.5142 223.061 24.0351C224.457 23.5351 225.884 23.2642 227.342 23.2226ZM243.655 40.7538C244.238 40.7538 244.78 40.6913 245.28 40.5663C245.696 40.4621 246.092 40.2955 246.467 40.0663C246.863 39.8163 247.124 39.4517 247.249 38.9726C247.665 39.0559 248.019 39.1288 248.311 39.1913C248.603 39.233 248.853 39.2746 249.061 39.3163C249.29 39.3788 249.488 39.4205 249.655 39.4413C249.821 39.483 250.019 39.5246 250.249 39.5663C250.457 39.608 250.707 39.6601 250.999 39.7226C251.311 39.7642 251.676 39.8267 252.092 39.9101C251.78 39.8684 251.457 39.8996 251.124 40.0038C250.811 40.108 250.509 40.2226 250.217 40.3476C249.884 40.4934 249.571 40.6705 249.28 40.8788C249.092 41.0038 248.874 41.1913 248.624 41.4413C248.394 41.6913 248.061 41.9309 247.624 42.1601C247.186 42.3892 246.603 42.5871 245.874 42.7538C245.165 42.8996 244.249 42.9517 243.124 42.9101C241.769 42.8684 240.634 42.6288 239.717 42.1913C238.801 41.733 238.061 41.1809 237.499 40.5351C236.936 39.8684 236.53 39.1496 236.28 38.3788C236.03 37.608 235.894 36.8892 235.874 36.2226C235.853 35.5559 236.051 34.858 236.467 34.1288C236.884 33.3996 237.467 32.733 238.217 32.1288C238.988 31.5246 239.915 31.0351 240.999 30.6601C242.082 30.2642 243.269 30.0663 244.561 30.0663C245.311 30.0663 245.999 30.1601 246.624 30.3476C247.269 30.5142 247.853 30.7434 248.374 31.0351C248.915 31.3267 249.384 31.6601 249.78 32.0351C250.176 32.3892 250.509 32.7538 250.78 33.1288C251.051 33.5246 251.28 33.9413 251.467 34.3788C251.634 34.7538 251.769 35.1809 251.874 35.6601C251.978 36.1392 252.009 36.6288 251.967 37.1288C250.384 37.1705 249.103 37.2017 248.124 37.2226C247.165 37.2434 246.415 37.2538 245.874 37.2538H244.467H243.405C243.03 37.2538 242.54 37.2642 241.936 37.2851C241.332 37.3059 240.592 37.3371 239.717 37.3788C239.821 38.2121 240.082 38.858 240.499 39.3163C240.936 39.7538 241.394 40.0871 241.874 40.3163C242.415 40.5663 243.009 40.7121 243.655 40.7538ZM240.842 35.1288C241.509 35.1705 242.061 35.2017 242.499 35.2226C242.957 35.2434 243.332 35.2642 243.624 35.2851C243.936 35.3059 244.186 35.3163 244.374 35.3163H245.155C245.676 35.3163 246.644 35.2851 248.061 35.2226C247.999 34.3059 247.801 33.608 247.467 33.1288C247.155 32.6496 246.821 32.2955 246.467 32.0663C246.051 31.8163 245.592 31.6705 245.092 31.6288C243.738 31.6496 242.728 31.9309 242.061 32.4726C241.415 33.0142 241.009 33.8996 240.842 35.1288ZM252.842 26.0976C253.467 26.1601 253.988 26.2121 254.405 26.2538C254.842 26.2955 255.196 26.3267 255.467 26.3476C255.78 26.3684 256.03 26.3788 256.217 26.3788C256.405 26.3996 256.655 26.3996 256.967 26.3788C257.238 26.358 257.592 26.3371 258.03 26.3163C258.467 26.2746 259.019 26.2121 259.686 26.1288C259.54 26.3371 259.426 26.5246 259.342 26.6913C259.259 26.8371 259.186 26.9726 259.124 27.0976L258.936 27.4726C258.894 27.5976 258.853 27.7226 258.811 27.8476C258.769 27.9517 258.728 28.0767 258.686 28.2226C258.665 28.3684 258.644 28.5246 258.624 28.6913H263.436L262.999 31.2226L258.592 30.9726C258.488 32.0351 258.415 32.858 258.374 33.4413C258.332 34.0246 258.29 34.4517 258.249 34.7226L258.186 35.2851C258.124 36.0767 258.061 36.9413 257.999 37.8788C257.936 38.7955 257.915 39.6496 257.936 40.4413C257.957 41.233 258.03 41.8996 258.155 42.4413C258.28 42.9621 258.499 43.2226 258.811 43.2226C259.124 43.2226 259.415 43.1392 259.686 42.9726C259.957 42.8059 260.186 42.608 260.374 42.3788C260.582 42.1496 260.738 41.9205 260.842 41.6913C260.946 41.4413 260.999 41.2538 260.999 41.1288C260.999 41.0038 260.967 40.858 260.905 40.6913C260.801 40.3788 260.613 39.983 260.342 39.5038C260.946 39.6496 261.478 39.7955 261.936 39.9413C262.165 40.0246 262.374 40.108 262.561 40.1913C262.769 40.2746 263.009 40.3684 263.28 40.4726C263.509 40.5767 263.801 40.7017 264.155 40.8476C264.509 40.9934 264.926 41.1705 265.405 41.3788C264.946 41.4621 264.613 41.5976 264.405 41.7851C264.28 41.8684 264.186 41.9621 264.124 42.0663C263.978 42.2955 263.811 42.608 263.624 43.0038C263.436 43.3788 263.155 43.7538 262.78 44.1288C262.405 44.5038 261.894 44.8371 261.249 45.1288C260.624 45.4205 259.78 45.5871 258.717 45.6288C257.613 45.6705 256.769 45.483 256.186 45.0663C255.624 44.6496 255.207 44.1705 254.936 43.6288C254.686 43.0663 254.54 42.5142 254.499 41.9726C254.457 41.4309 254.426 41.0663 254.405 40.8788C254.384 40.6913 254.384 40.2226 254.405 39.4726C254.426 38.7226 254.457 37.8996 254.499 37.0038C254.54 36.0871 254.582 35.2121 254.624 34.3788C254.665 33.5246 254.686 32.8996 254.686 32.5038C254.686 32.2955 254.696 32.0767 254.717 31.8476C254.717 31.6601 254.717 31.4621 254.717 31.2538C254.738 31.0246 254.749 30.8059 254.749 30.5976L250.217 30.5663L250.03 28.7851L254.592 28.9101C254.551 28.6809 254.499 28.4726 254.436 28.2851C254.394 28.0767 254.353 27.9101 254.311 27.7851C254.249 27.6392 254.186 27.5142 254.124 27.4101C254.04 27.3059 253.946 27.1913 253.842 27.0663C253.738 26.9621 253.603 26.8267 253.436 26.6601C253.269 26.4934 253.071 26.3059 252.842 26.0976ZM294.155 22.9101C293.863 23.5767 293.603 24.1601 293.374 24.6601C293.144 25.1601 292.946 25.5871 292.78 25.9413C292.592 26.3371 292.436 26.6913 292.311 27.0038C292.207 27.233 292.071 27.5455 291.905 27.9413C291.738 28.2955 291.53 28.7642 291.28 29.3476C291.051 29.9101 290.749 30.6392 290.374 31.5351C290.186 30.7642 289.957 30.0871 289.686 29.5038C289.415 28.9205 289.124 28.4101 288.811 27.9726C288.499 27.5351 288.165 27.1809 287.811 26.9101C287.478 26.6184 287.144 26.3788 286.811 26.1913C286.04 25.7746 285.228 25.5455 284.374 25.5038C283.249 25.5663 282.363 25.7538 281.717 26.0663C281.092 26.358 280.634 26.7017 280.342 27.0976C280.051 27.4726 279.894 27.8684 279.874 28.2851C279.853 28.6809 279.905 29.0142 280.03 29.2851C280.134 29.5351 280.499 29.8267 281.124 30.1601C281.769 30.4934 282.54 30.8788 283.436 31.3163C284.353 31.733 285.332 32.2121 286.374 32.7538C287.415 33.2746 288.374 33.858 289.249 34.5038C290.144 35.1288 290.894 35.8163 291.499 36.5663C292.124 37.2955 292.467 38.0767 292.53 38.9101C292.592 39.9726 292.582 40.9309 292.499 41.7851C292.415 42.6392 292.124 43.3684 291.624 43.9726C291.124 44.5767 290.342 45.0559 289.28 45.4101C288.238 45.7642 286.79 45.983 284.936 46.0663C283.019 46.1496 281.446 46.0455 280.217 45.7538C278.988 45.4621 277.988 45.0663 277.217 44.5663C276.467 44.0663 275.905 43.5142 275.53 42.9101C275.176 42.3059 274.915 41.733 274.749 41.1913C274.582 40.6288 274.467 40.1496 274.405 39.7538C274.342 39.3371 274.238 39.0871 274.092 39.0038C273.926 38.8996 273.759 38.8059 273.592 38.7226C273.446 38.6392 273.29 38.5663 273.124 38.5038C272.957 38.4205 272.79 38.3476 272.624 38.2851L281.717 36.8163C281.196 37.233 280.79 37.6184 280.499 37.9726C280.228 38.3267 280.019 38.6392 279.874 38.9101C279.707 39.2226 279.592 39.5142 279.53 39.7851C279.488 40.0767 279.582 40.4413 279.811 40.8788C280.04 41.3163 280.353 41.7434 280.749 42.1601C281.165 42.5559 281.644 42.8892 282.186 43.1601C282.728 43.4309 283.29 43.5455 283.874 43.5038C284.603 43.4413 285.196 43.2642 285.655 42.9726C286.113 42.6601 286.457 42.2746 286.686 41.8163C286.936 41.358 287.082 40.858 287.124 40.3163C287.165 39.7746 287.113 39.2434 286.967 38.7226C286.842 38.1809 286.634 37.6809 286.342 37.2226C286.051 36.7434 285.707 36.3476 285.311 36.0351C284.957 35.7851 284.405 35.5455 283.655 35.3163C282.926 35.0871 282.103 34.8371 281.186 34.5663C280.29 34.2955 279.363 33.983 278.405 33.6288C277.467 33.2746 276.613 32.8371 275.842 32.3163C275.092 31.7955 274.488 31.1809 274.03 30.4726C273.592 29.7642 273.426 28.9101 273.53 27.9101C273.613 27.0559 273.884 26.3476 274.342 25.7851C274.821 25.2017 275.415 24.7434 276.124 24.4101C276.853 24.0559 277.655 23.7955 278.53 23.6288C279.426 23.4621 280.332 23.3684 281.249 23.3476C282.186 23.3059 283.103 23.3163 283.999 23.3788C284.915 23.4413 285.738 23.5142 286.467 23.5976C287.196 23.6809 287.811 23.7642 288.311 23.8476C288.832 23.9101 289.155 23.9517 289.28 23.9726C289.821 24.0142 290.363 24.0038 290.905 23.9413C291.384 23.8996 291.905 23.8059 292.467 23.6601C293.051 23.4934 293.613 23.2434 294.155 22.9101ZM294.092 26.0976C294.717 26.1601 295.238 26.2121 295.655 26.2538C296.092 26.2955 296.446 26.3267 296.717 26.3476C297.03 26.3684 297.28 26.3788 297.467 26.3788C297.655 26.3996 297.905 26.3996 298.217 26.3788C298.488 26.358 298.842 26.3371 299.28 26.3163C299.717 26.2746 300.269 26.2121 300.936 26.1288C300.79 26.3371 300.676 26.5246 300.592 26.6913C300.509 26.8371 300.436 26.9726 300.374 27.0976L300.186 27.4726C300.144 27.5976 300.103 27.7226 300.061 27.8476C300.019 27.9517 299.978 28.0767 299.936 28.2226C299.915 28.3684 299.894 28.5246 299.874 28.6913H304.686L304.249 31.2226L299.842 30.9726C299.738 32.0351 299.665 32.858 299.624 33.4413C299.582 34.0246 299.54 34.4517 299.499 34.7226L299.436 35.2851C299.374 36.0767 299.311 36.9413 299.249 37.8788C299.186 38.7955 299.165 39.6496 299.186 40.4413C299.207 41.233 299.28 41.8996 299.405 42.4413C299.53 42.9621 299.749 43.2226 300.061 43.2226C300.374 43.2226 300.665 43.1392 300.936 42.9726C301.207 42.8059 301.436 42.608 301.624 42.3788C301.832 42.1496 301.988 41.9205 302.092 41.6913C302.196 41.4413 302.249 41.2538 302.249 41.1288C302.249 41.0038 302.217 40.858 302.155 40.6913C302.051 40.3788 301.863 39.983 301.592 39.5038C302.196 39.6496 302.728 39.7955 303.186 39.9413C303.415 40.0246 303.624 40.108 303.811 40.1913C304.019 40.2746 304.259 40.3684 304.53 40.4726C304.759 40.5767 305.051 40.7017 305.405 40.8476C305.759 40.9934 306.176 41.1705 306.655 41.3788C306.196 41.4621 305.863 41.5976 305.655 41.7851C305.53 41.8684 305.436 41.9621 305.374 42.0663C305.228 42.2955 305.061 42.608 304.874 43.0038C304.686 43.3788 304.405 43.7538 304.03 44.1288C303.655 44.5038 303.144 44.8371 302.499 45.1288C301.874 45.4205 301.03 45.5871 299.967 45.6288C298.863 45.6705 298.019 45.483 297.436 45.0663C296.874 44.6496 296.457 44.1705 296.186 43.6288C295.936 43.0663 295.79 42.5142 295.749 41.9726C295.707 41.4309 295.676 41.0663 295.655 40.8788C295.634 40.6913 295.634 40.2226 295.655 39.4726C295.676 38.7226 295.707 37.8996 295.749 37.0038C295.79 36.0871 295.832 35.2121 295.874 34.3788C295.915 33.5246 295.936 32.8996 295.936 32.5038C295.936 32.2955 295.946 32.0767 295.967 31.8476C295.967 31.6601 295.967 31.4621 295.967 31.2538C295.988 31.0246 295.999 30.8059 295.999 30.5976L291.467 30.5663L291.28 28.7851L295.842 28.9101C295.801 28.6809 295.749 28.4726 295.686 28.2851C295.644 28.0767 295.603 27.9101 295.561 27.7851C295.499 27.6392 295.436 27.5142 295.374 27.4101C295.29 27.3059 295.196 27.1913 295.092 27.0663C294.988 26.9621 294.853 26.8267 294.686 26.6601C294.519 26.4934 294.321 26.3059 294.092 26.0976ZM307.717 33.1288C307.821 33.0038 307.884 32.7746 307.905 32.4413C307.946 32.0871 308.03 31.6913 308.155 31.2538C308.301 30.8163 308.54 30.358 308.874 29.8788C309.207 29.3996 309.749 28.9517 310.499 28.5351C311.228 28.1184 311.936 27.8684 312.624 27.7851C313.311 27.7017 313.967 27.733 314.592 27.8788C315.217 28.0246 315.801 28.2538 316.342 28.5663C316.905 28.8788 317.415 29.2226 317.874 29.5976C318.186 29.8476 318.436 30.2121 318.624 30.6913C318.811 31.1496 318.957 31.6705 319.061 32.2538C319.165 32.8371 319.238 33.4517 319.28 34.0976C319.342 34.7226 319.384 35.3371 319.405 35.9413C319.426 36.5246 319.436 37.0663 319.436 37.5663C319.457 38.0455 319.499 38.4413 319.561 38.7538C319.644 39.2121 319.79 39.608 319.999 39.9413C320.207 40.2538 320.436 40.5246 320.686 40.7538C320.936 40.9621 321.186 41.1288 321.436 41.2538C321.686 41.3788 321.905 41.4726 322.092 41.5351C322.217 41.5976 322.332 41.6392 322.436 41.6601C322.644 41.7434 322.79 41.7434 322.874 41.6601C322.749 41.9517 322.634 42.2017 322.53 42.4101C322.426 42.6184 322.342 42.7955 322.28 42.9413C322.196 43.108 322.124 43.2434 322.061 43.3476C321.999 43.4726 321.926 43.5871 321.842 43.6913C321.78 43.7955 321.696 43.9101 321.592 44.0351C321.488 44.1601 321.384 44.2955 321.28 44.4413C321.009 44.3371 320.749 44.2121 320.499 44.0663C320.269 43.9205 320.061 43.7851 319.874 43.6601C319.644 43.5142 319.436 43.3684 319.249 43.2226C319.061 43.0767 318.884 42.9101 318.717 42.7226C318.571 42.5559 318.415 42.3788 318.249 42.1913C318.103 42.0038 317.978 41.7955 317.874 41.5663C317.749 41.8371 317.446 42.2226 316.967 42.7226C316.509 43.2226 315.905 43.6809 315.155 44.0976C314.405 44.4934 313.53 44.7746 312.53 44.9413C311.551 45.108 310.467 44.9934 309.28 44.5976C308.759 44.4309 308.269 44.1913 307.811 43.8788C307.353 43.5455 306.957 43.1496 306.624 42.6913C306.311 42.233 306.082 41.7121 305.936 41.1288C305.811 40.5246 305.821 39.858 305.967 39.1288C306.113 38.3996 306.374 37.7851 306.749 37.2851C307.124 36.7851 307.571 36.3788 308.092 36.0663C308.613 35.7538 309.196 35.5142 309.842 35.3476C310.488 35.1809 311.155 35.0663 311.842 35.0038C312.384 34.983 312.926 35.0142 313.467 35.0976C313.926 35.1809 314.405 35.3371 314.905 35.5663C315.405 35.7746 315.832 36.0976 316.186 36.5351C316.165 35.4309 316.124 34.5559 316.061 33.9101C316.019 33.2434 315.978 32.733 315.936 32.3788C315.853 31.9621 315.78 31.6705 315.717 31.5038C315.613 31.358 315.499 31.1913 315.374 31.0038C315.269 30.8163 315.134 30.6496 314.967 30.5038C314.801 30.3371 314.592 30.2017 314.342 30.0976C314.092 29.9934 313.801 29.9517 313.467 29.9726C313.113 29.9934 312.832 30.0871 312.624 30.2538C312.415 30.4205 312.249 30.6184 312.124 30.8476C312.019 31.0559 311.957 31.2851 311.936 31.5351C311.915 31.7851 311.926 32.0038 311.967 32.1913C312.009 32.3163 312.071 32.4517 312.155 32.5976C312.238 32.7226 312.353 32.858 312.499 33.0038C312.644 33.1496 312.842 33.2746 313.092 33.3788C312.613 33.4413 312.186 33.4934 311.811 33.5351C311.436 33.5559 311.113 33.5871 310.842 33.6288C310.53 33.6705 310.259 33.7017 310.03 33.7226C309.801 33.7434 309.53 33.7851 309.217 33.8476C308.946 33.8892 308.613 33.9413 308.217 34.0038C307.821 34.0663 307.363 34.1496 306.842 34.2538C306.967 34.108 307.082 33.9726 307.186 33.8476C307.29 33.7017 307.384 33.5767 307.467 33.4726C307.551 33.3476 307.634 33.233 307.717 33.1288ZM312.405 36.8476C312.03 36.8684 311.655 36.9621 311.28 37.1288C310.905 37.2746 310.571 37.4934 310.28 37.7851C309.988 38.0559 309.738 38.3788 309.53 38.7538C309.342 39.108 309.249 39.5038 309.249 39.9413C309.249 40.3788 309.353 40.7642 309.561 41.0976C309.79 41.4101 310.082 41.6705 310.436 41.8788C310.811 42.0871 311.207 42.2121 311.624 42.2538C312.061 42.2955 312.488 42.2538 312.905 42.1288C313.301 41.983 313.676 41.7538 314.03 41.4413C314.384 41.108 314.686 40.7538 314.936 40.3788C315.186 39.983 315.363 39.5976 315.467 39.2226C315.571 38.8267 315.582 38.5038 315.499 38.2538C315.332 37.7121 314.957 37.3371 314.374 37.1288C313.79 36.8996 313.134 36.8059 312.405 36.8476ZM322.249 30.8163C322.644 30.8371 322.999 30.8476 323.311 30.8476C323.644 30.8267 323.926 30.8059 324.155 30.7851C324.426 30.7642 324.665 30.7434 324.874 30.7226C325.186 30.6809 325.509 30.6288 325.842 30.5663C326.134 30.5246 326.436 30.4726 326.749 30.4101C327.082 30.3267 327.405 30.233 327.717 30.1288C327.592 30.4413 327.488 30.7121 327.405 30.9413C327.321 31.1705 327.259 31.3684 327.217 31.5351C327.155 31.7226 327.124 31.8788 327.124 32.0038C327.103 32.1496 327.092 32.3267 327.092 32.5351C327.071 32.8892 327.071 33.4621 327.092 34.2538C328.176 33.3163 329.082 32.5871 329.811 32.0663C330.561 31.5455 331.155 31.1392 331.592 30.8476C332.113 30.5142 332.519 30.2955 332.811 30.1913C333.582 30.0663 334.259 30.2434 334.842 30.7226C335.092 30.9309 335.332 31.2121 335.561 31.5663C335.79 31.8996 335.988 32.3476 336.155 32.9101C336.321 33.4726 336.446 34.1496 336.53 34.9413C336.613 35.7121 336.624 36.6392 336.561 37.7226C336.124 37.7642 335.728 37.8059 335.374 37.8476C335.04 37.8892 334.759 37.9205 334.53 37.9413C334.259 37.983 334.009 38.0038 333.78 38.0038L332.936 38.0976C332.644 38.1392 332.28 38.1809 331.842 38.2226C331.426 38.2434 330.915 38.2851 330.311 38.3476C331.186 37.6392 331.749 37.0246 331.999 36.5038C332.269 35.9621 332.384 35.5142 332.342 35.1601C332.301 34.7642 332.113 34.4205 331.78 34.1288C331.384 33.8996 330.957 33.8163 330.499 33.8788C330.103 33.9205 329.644 34.0976 329.124 34.4101C328.603 34.7226 328.051 35.3059 327.467 36.1601C327.509 37.4934 327.551 38.5976 327.592 39.4726C327.655 40.3476 327.707 41.0559 327.749 41.5976C327.811 42.2226 327.863 42.7121 327.905 43.0663C327.967 43.3788 328.092 43.7121 328.28 44.0663C328.426 44.358 328.634 44.6809 328.905 45.0351C329.176 45.3892 329.53 45.7434 329.967 46.0976C329.051 46.0559 328.301 46.0559 327.717 46.0976C327.363 46.1184 327.051 46.1392 326.78 46.1601C326.488 46.2017 326.176 46.2434 325.842 46.2851C325.551 46.3267 325.207 46.3684 324.811 46.4101C324.436 46.4726 324.019 46.5351 323.561 46.5976C323.728 46.3684 323.863 46.0976 323.967 45.7851C324.071 45.4934 324.155 45.2121 324.217 44.9413C324.301 44.6288 324.363 44.3059 324.405 43.9726C324.426 43.6809 324.436 43.2434 324.436 42.6601C324.457 42.0767 324.446 41.4205 324.405 40.6913C324.384 39.9413 324.353 39.1705 324.311 38.3788C324.269 37.5663 324.217 36.8059 324.155 36.0976C324.092 35.3892 324.019 34.7746 323.936 34.2538C323.874 33.7121 323.801 33.3371 323.717 33.1288C323.613 32.8788 323.488 32.6288 323.342 32.3788C323.217 32.1496 323.061 31.9101 322.874 31.6601C322.686 31.3892 322.478 31.108 322.249 30.8163ZM337.499 26.0976C338.124 26.1601 338.644 26.2121 339.061 26.2538C339.499 26.2955 339.853 26.3267 340.124 26.3476C340.436 26.3684 340.686 26.3788 340.874 26.3788C341.061 26.3996 341.311 26.3996 341.624 26.3788C341.894 26.358 342.249 26.3371 342.686 26.3163C343.124 26.2746 343.676 26.2121 344.342 26.1288C344.196 26.3371 344.082 26.5246 343.999 26.6913C343.915 26.8371 343.842 26.9726 343.78 27.0976L343.592 27.4726C343.551 27.5976 343.509 27.7226 343.467 27.8476C343.426 27.9517 343.384 28.0767 343.342 28.2226C343.321 28.3684 343.301 28.5246 343.28 28.6913H348.092L347.655 31.2226L343.249 30.9726C343.144 32.0351 343.071 32.858 343.03 33.4413C342.988 34.0246 342.946 34.4517 342.905 34.7226L342.842 35.2851C342.78 36.0767 342.717 36.9413 342.655 37.8788C342.592 38.7955 342.571 39.6496 342.592 40.4413C342.613 41.233 342.686 41.8996 342.811 42.4413C342.936 42.9621 343.155 43.2226 343.467 43.2226C343.78 43.2226 344.071 43.1392 344.342 42.9726C344.613 42.8059 344.842 42.608 345.03 42.3788C345.238 42.1496 345.394 41.9205 345.499 41.6913C345.603 41.4413 345.655 41.2538 345.655 41.1288C345.655 41.0038 345.624 40.858 345.561 40.6913C345.457 40.3788 345.269 39.983 344.999 39.5038C345.603 39.6496 346.134 39.7955 346.592 39.9413C346.821 40.0246 347.03 40.108 347.217 40.1913C347.426 40.2746 347.665 40.3684 347.936 40.4726C348.165 40.5767 348.457 40.7017 348.811 40.8476C349.165 40.9934 349.582 41.1705 350.061 41.3788C349.603 41.4621 349.269 41.5976 349.061 41.7851C348.936 41.8684 348.842 41.9621 348.78 42.0663C348.634 42.2955 348.467 42.608 348.28 43.0038C348.092 43.3788 347.811 43.7538 347.436 44.1288C347.061 44.5038 346.551 44.8371 345.905 45.1288C345.28 45.4205 344.436 45.5871 343.374 45.6288C342.269 45.6705 341.426 45.483 340.842 45.0663C340.28 44.6496 339.863 44.1705 339.592 43.6288C339.342 43.0663 339.196 42.5142 339.155 41.9726C339.113 41.4309 339.082 41.0663 339.061 40.8788C339.04 40.6913 339.04 40.2226 339.061 39.4726C339.082 38.7226 339.113 37.8996 339.155 37.0038C339.196 36.0871 339.238 35.2121 339.28 34.3788C339.321 33.5246 339.342 32.8996 339.342 32.5038C339.342 32.2955 339.353 32.0767 339.374 31.8476C339.374 31.6601 339.374 31.4621 339.374 31.2538C339.394 31.0246 339.405 30.8059 339.405 30.5976L334.874 30.5663L334.686 28.7851L339.249 28.9101C339.207 28.6809 339.155 28.4726 339.092 28.2851C339.051 28.0767 339.009 27.9101 338.967 27.7851C338.905 27.6392 338.842 27.5142 338.78 27.4101C338.696 27.3059 338.603 27.1913 338.499 27.0663C338.394 26.9621 338.259 26.8267 338.092 26.6601C337.926 26.4934 337.728 26.3059 337.499 26.0976ZM356.905 40.7538C357.488 40.7538 358.03 40.6913 358.53 40.5663C358.946 40.4621 359.342 40.2955 359.717 40.0663C360.113 39.8163 360.374 39.4517 360.499 38.9726C360.915 39.0559 361.269 39.1288 361.561 39.1913C361.853 39.233 362.103 39.2746 362.311 39.3163C362.54 39.3788 362.738 39.4205 362.905 39.4413C363.071 39.483 363.269 39.5246 363.499 39.5663C363.707 39.608 363.957 39.6601 364.249 39.7226C364.561 39.7642 364.926 39.8267 365.342 39.9101C365.03 39.8684 364.707 39.8996 364.374 40.0038C364.061 40.108 363.759 40.2226 363.467 40.3476C363.134 40.4934 362.821 40.6705 362.53 40.8788C362.342 41.0038 362.124 41.1913 361.874 41.4413C361.644 41.6913 361.311 41.9309 360.874 42.1601C360.436 42.3892 359.853 42.5871 359.124 42.7538C358.415 42.8996 357.499 42.9517 356.374 42.9101C355.019 42.8684 353.884 42.6288 352.967 42.1913C352.051 41.733 351.311 41.1809 350.749 40.5351C350.186 39.8684 349.78 39.1496 349.53 38.3788C349.28 37.608 349.144 36.8892 349.124 36.2226C349.103 35.5559 349.301 34.858 349.717 34.1288C350.134 33.3996 350.717 32.733 351.467 32.1288C352.238 31.5246 353.165 31.0351 354.249 30.6601C355.332 30.2642 356.519 30.0663 357.811 30.0663C358.561 30.0663 359.249 30.1601 359.874 30.3476C360.519 30.5142 361.103 30.7434 361.624 31.0351C362.165 31.3267 362.634 31.6601 363.03 32.0351C363.426 32.3892 363.759 32.7538 364.03 33.1288C364.301 33.5246 364.53 33.9413 364.717 34.3788C364.884 34.7538 365.019 35.1809 365.124 35.6601C365.228 36.1392 365.259 36.6288 365.217 37.1288C363.634 37.1705 362.353 37.2017 361.374 37.2226C360.415 37.2434 359.665 37.2538 359.124 37.2538H357.717H356.655C356.28 37.2538 355.79 37.2642 355.186 37.2851C354.582 37.3059 353.842 37.3371 352.967 37.3788C353.071 38.2121 353.332 38.858 353.749 39.3163C354.186 39.7538 354.644 40.0871 355.124 40.3163C355.665 40.5663 356.259 40.7121 356.905 40.7538ZM354.092 35.1288C354.759 35.1705 355.311 35.2017 355.749 35.2226C356.207 35.2434 356.582 35.2642 356.874 35.2851C357.186 35.3059 357.436 35.3163 357.624 35.3163H358.405C358.926 35.3163 359.894 35.2851 361.311 35.2226C361.249 34.3059 361.051 33.608 360.717 33.1288C360.405 32.6496 360.071 32.2955 359.717 32.0663C359.301 31.8163 358.842 31.6705 358.342 31.6288C356.988 31.6496 355.978 31.9309 355.311 32.4726C354.665 33.0142 354.259 33.8996 354.092 35.1288ZM381.811 21.8476C382.207 21.8684 382.634 21.8788 383.092 21.8788C383.488 21.8788 383.936 21.8892 384.436 21.9101C384.957 21.9101 385.499 21.8892 386.061 21.8476C385.561 22.0767 385.124 22.4101 384.749 22.8476C384.374 23.2851 384.071 23.7226 383.842 24.1601C383.551 24.6809 383.311 25.2226 383.124 25.7851C383.019 26.1184 382.936 26.7121 382.874 27.5663C382.811 28.3996 382.759 29.3788 382.717 30.5038C382.696 31.6288 382.686 32.8163 382.686 34.0663C382.686 35.3163 382.696 36.5142 382.717 37.6601C382.738 38.7851 382.769 39.7851 382.811 40.6601C382.853 41.5351 382.905 42.1496 382.967 42.5038C383.051 42.9205 383.155 43.3163 383.28 43.6913C383.384 44.0246 383.519 44.3684 383.686 44.7226C383.853 45.0559 384.061 45.3267 384.311 45.5351L381.124 46.9726C380.957 46.7434 380.821 46.5038 380.717 46.2538C380.613 46.0246 380.53 45.8163 380.467 45.6288C380.384 45.3996 380.332 45.1913 380.311 45.0038C380.269 44.7538 380.228 44.483 380.186 44.1913C380.144 43.8788 380.092 43.5871 380.03 43.3163C379.988 43.0246 379.957 42.7851 379.936 42.5976C379.915 42.4101 379.915 42.2955 379.936 42.2538C379.957 42.2121 379.832 42.3996 379.561 42.8163C379.29 43.2121 378.884 43.6809 378.342 44.2226C377.821 44.7434 377.176 45.2538 376.405 45.7538C375.634 46.233 374.769 46.5351 373.811 46.6601C372.832 46.7851 371.926 46.5976 371.092 46.0976C370.28 45.5976 369.582 44.8996 368.999 44.0038C368.415 43.0871 367.967 42.0351 367.655 40.8476C367.363 39.6392 367.249 38.4101 367.311 37.1601C367.353 36.3267 367.54 35.5871 367.874 34.9413C368.207 34.2746 368.624 33.7017 369.124 33.2226C369.644 32.7226 370.207 32.3059 370.811 31.9726C371.436 31.6184 372.04 31.3267 372.624 31.0976C373.228 30.8684 373.79 30.7017 374.311 30.5976C374.832 30.4934 375.249 30.4205 375.561 30.3788C375.936 30.358 376.363 30.4205 376.842 30.5663C377.259 30.6913 377.738 30.8996 378.28 31.1913C378.842 31.483 379.467 31.9205 380.155 32.5038C380.03 30.4205 379.915 28.7538 379.811 27.5038C379.707 26.233 379.603 25.2642 379.499 24.5976C379.394 23.8059 379.301 23.2642 379.217 22.9726C379.113 22.7642 378.978 22.5559 378.811 22.3476C378.665 22.1809 378.478 22.0142 378.249 21.8476C378.04 21.6601 377.79 21.5142 377.499 21.4101C378.04 21.5142 378.561 21.5871 379.061 21.6288C379.561 21.6705 380.019 21.7121 380.436 21.7538C380.915 21.7955 381.374 21.8267 381.811 21.8476ZM373.967 33.5038C373.571 33.6496 373.249 33.8996 372.999 34.2538C372.769 34.608 372.582 35.0351 372.436 35.5351C372.29 36.0142 372.186 36.5351 372.124 37.0976C372.082 37.6392 372.051 38.1705 372.03 38.6913C372.03 39.1913 372.03 39.6496 372.03 40.0663C372.03 40.483 372.03 40.7955 372.03 41.0038C372.03 41.1288 372.051 41.358 372.092 41.6913C372.155 42.0038 372.28 42.3371 372.467 42.6913C372.655 43.0246 372.915 43.3267 373.249 43.5976C373.603 43.8684 374.071 44.0038 374.655 44.0038C375.134 43.9621 375.644 43.7955 376.186 43.5038C376.665 43.2538 377.207 42.858 377.811 42.3163C378.436 41.7538 379.103 40.9517 379.811 39.9101C379.769 39.2434 379.738 38.6913 379.717 38.2538C379.717 37.8163 379.707 37.4621 379.686 37.1913C379.665 36.8788 379.655 36.6288 379.655 36.4413V35.9726C379.655 35.8476 379.655 35.7121 379.655 35.5663C379.655 35.4205 379.665 35.2851 379.686 35.1601C379.103 34.7434 378.582 34.3892 378.124 34.0976C377.686 33.7851 377.249 33.5559 376.811 33.4101C376.394 33.2434 375.957 33.1705 375.499 33.1913C375.061 33.1913 374.551 33.2955 373.967 33.5038Z" fill="#3D4987"/>
</svg>
