<svg width="140" height="103" viewBox="0 0 140 103" fill="none" xmlns="http://www.w3.org/2000/svg">
<path fill-rule="evenodd" clip-rule="evenodd" d="M31.8873 65.7382C30.5339 65.7382 29.2358 66.1655 28.2788 66.9262C27.3217 67.6869 26.7841 68.7187 26.7841 69.7944C26.7841 70.8702 27.3217 71.9019 28.2788 72.6625C29.2358 73.4232 30.5339 73.8506 31.8873 73.8506H72.7135C74.067 73.8506 75.365 73.4232 76.3221 72.6625C77.2791 71.9019 77.8168 70.8702 77.8168 69.7944C77.8168 68.7187 77.2791 67.6869 76.3221 66.9262C75.365 66.1655 74.067 65.7382 72.7135 65.7382H31.8873Z" fill="white"/>
<path fill-rule="evenodd" clip-rule="evenodd" d="M40.8838 53.5696C39.4845 53.5696 38.1425 53.9969 37.153 54.7576C36.1635 55.5182 35.6077 56.55 35.6077 57.6258C35.6077 58.7016 36.1635 59.7332 37.153 60.4939C38.1425 61.2546 39.4845 61.682 40.8838 61.682H72.5405C73.9399 61.682 75.2819 61.2546 76.2713 60.4939C77.2608 59.7332 77.8167 58.7016 77.8167 57.6258C77.8167 56.55 77.2608 55.5182 76.2713 54.7576C75.2819 53.9969 73.9399 53.5696 72.5405 53.5696H40.8838Z" fill="white"/>
<path fill-rule="evenodd" clip-rule="evenodd" d="M54.6379 41.4009C53.1011 41.4009 51.6272 41.8282 50.5405 42.5889C49.4538 43.3496 48.8433 44.3814 48.8433 45.4572C48.8433 46.5329 49.4538 47.5646 50.5405 48.3253C51.6272 49.086 53.1011 49.5134 54.6379 49.5134H72.022C73.5588 49.5134 75.0327 49.086 76.1195 48.3253C77.2062 47.5646 77.8167 46.5329 77.8167 45.4572C77.8167 44.3814 77.2062 43.3496 76.1195 42.5889C75.0327 41.8282 73.5588 41.4009 72.022 41.4009H54.6379Z" fill="white"/>
<path fill-rule="evenodd" clip-rule="evenodd" d="M40.7501 17.0874C39.496 17.1903 38.3272 17.601 37.4355 18.252L27.4589 25.5246L23.0466 22.3082C22.0031 21.5477 20.588 21.1204 19.1125 21.1204C17.637 21.1204 16.2219 21.5477 15.1784 22.3082C14.1351 23.0688 13.5491 24.1004 13.5491 25.176C13.5491 26.2517 14.1351 27.2832 15.1784 28.0439L23.5248 34.1282C24.5683 34.8886 25.9834 35.3158 27.4589 35.3158C28.9344 35.3158 30.3495 34.8886 31.393 34.1282L45.3037 23.9877C46.3469 23.227 46.933 22.1954 46.933 21.1198C46.933 20.0442 46.3469 19.0126 45.3037 18.252C44.7133 17.8211 43.9974 17.4927 43.2091 17.2911C42.4208 17.0895 41.5804 17.0199 40.7501 17.0874Z" fill="white"/>
<path fill-rule="evenodd" clip-rule="evenodd" d="M28.1669 0.838806C12.8385 0.838806 0.312866 11.7831 0.312866 25.1761C0.312866 32.3475 3.90765 38.8156 9.59753 43.2785V90.0755C9.59765 91.1512 10.0868 92.1828 10.9574 92.9435C11.828 93.7041 13.0087 94.1316 14.2399 94.1317H24.3315C26.2613 98.8385 31.438 102.244 37.4515 102.244C43.465 102.244 48.6418 98.8385 50.5715 94.1317H83.8748H93.9665C95.8962 98.8385 101.073 102.244 107.086 102.244C113.1 102.244 118.277 98.8385 120.207 94.1317H134.94C136.172 94.1316 137.352 93.7041 138.223 92.9435C139.094 92.1828 139.583 91.1512 139.583 90.0755V61.682C139.584 60.7607 139.225 59.8666 138.567 59.1468L119.998 38.8658C119.563 38.3908 119.011 38.0075 118.383 37.7442C117.755 37.4809 117.068 37.3444 116.371 37.3447H88.5172V29.2323C88.517 28.1565 88.0279 27.1248 87.1573 26.3642C86.2867 25.6035 85.106 25.1762 83.8748 25.1761H56.0208C56.0208 11.7831 43.4952 0.838806 28.1669 0.838806ZM28.1669 8.95123C38.4774 8.95123 46.7362 16.1673 46.7362 25.1761C46.7362 34.1848 38.4774 41.4009 28.1669 41.4009C24.2322 41.4009 20.5959 40.3493 17.6037 38.5489C17.2451 38.2178 16.8251 37.942 16.3616 37.7329C12.223 34.7654 9.59753 30.2556 9.59753 25.1761C9.59753 16.1673 17.8563 8.95123 28.1669 8.95123ZM54.416 33.2885H79.2325V86.0192H50.5715C48.6418 81.3125 43.465 77.9068 37.4515 77.9068C31.438 77.9068 26.2613 81.3125 24.3315 86.0192H18.8822V48.1111C21.7895 49.0155 24.9142 49.5133 28.1669 49.5133C40.2425 49.5133 50.5731 42.7194 54.416 33.2885ZM88.5172 45.4571H97.8018V65.7382C97.802 66.8139 98.2911 67.8455 99.1617 68.6062C100.032 69.3668 101.213 69.7943 102.444 69.7944H130.298V86.0192H120.207C118.277 81.3125 113.1 77.9068 107.086 77.9068C101.073 77.9068 95.8962 81.3125 93.9665 86.0192H88.5172V45.4571ZM107.086 45.4571H114.141L128.992 61.682H107.086V45.4571ZM37.4515 86.0192C40.0704 86.0192 42.0938 87.7872 42.0938 90.0755C42.0938 92.3637 40.0704 94.1317 37.4515 94.1317C34.8326 94.1317 32.8092 92.3637 32.8092 90.0755C32.8092 87.7872 34.8326 86.0192 37.4515 86.0192ZM107.086 86.0192C109.705 86.0192 111.729 87.7872 111.729 90.0755C111.729 92.3637 109.705 94.1317 107.086 94.1317C104.468 94.1317 102.444 92.3637 102.444 90.0755C102.444 87.7872 104.468 86.0192 107.086 86.0192Z" fill="white"/>
</svg>
