<svg width="134" height="109" viewBox="0 0 134 109" fill="none" xmlns="http://www.w3.org/2000/svg">
<path d="M18.1713 0.395935C13.2735 0.395935 9.26229 3.536 9.26229 7.3701V26.4644H14.798V7.3701C14.798 5.87201 16.2576 4.7294 18.1713 4.7294H111.068C112.971 4.7294 114.441 5.87201 114.441 7.3701V26.4644H119.977V7.3701C119.977 3.536 115.966 0.395935 111.068 0.395935H18.1713ZM61.8517 20.3705C50.5207 20.3705 41.9793 21.0984 35.9895 22.4018C32.9945 23.0535 30.6483 23.8745 28.8103 24.9071C27.0263 25.9143 25.7397 27.2939 25.5235 28.9697H25.437V29.1051L20.6797 56.731H18.1713C17.0037 56.731 15.89 56.7987 14.798 57.0018V52.3298H9.26229V59.1685C5.9214 61.2168 3.72657 64.3653 3.72657 67.9709V87.0652C3.72657 87.1329 3.72657 87.2006 3.72657 87.2683V97.4926C3.71576 97.5857 3.71576 97.6704 3.72657 97.7635V102.232C3.72657 105.796 7.47832 108.733 12.0302 108.733H23.1016C27.6534 108.733 31.4052 105.796 31.4052 102.232V97.8989H77.8534C83.2918 104.424 92.6982 108.733 103.37 108.733C104.007 108.733 104.645 108.699 105.272 108.665C105.554 108.724 105.846 108.749 106.137 108.733H117.209C121.761 108.733 125.512 105.796 125.512 102.232C125.534 101.936 125.469 101.631 125.34 101.352C130.572 97.0694 133.816 91.2717 133.816 84.8985C133.816 78.593 130.648 72.846 125.512 68.5803V67.9709C125.512 64.3653 123.318 61.2168 119.977 59.1685V52.3298H114.441V57.0018C113.349 56.7987 112.235 56.731 111.068 56.731H108.559L103.802 29.1051V28.9697H103.716C103.445 26.913 101.467 25.7027 99.2178 24.7717C96.9149 23.8153 93.9416 23.0366 90.3087 22.4018C83.0431 21.1407 73.1826 20.3705 61.8517 20.3705ZM61.8517 24.704C72.8691 24.704 82.4268 25.508 89.0978 26.6676C92.4279 27.2516 95.0444 27.9117 96.6229 28.5635C97.8122 29.0544 98.1799 29.4606 98.2663 29.5114C98.2988 29.5368 98.3204 29.5537 98.3528 29.5791L101.207 46.1682C97.7474 46.6506 86.0705 48.064 64.6195 48.064C43.1686 48.064 31.4917 46.6506 28.0319 46.1682L30.8862 29.5791C30.9186 29.5368 30.9511 29.486 30.9727 29.4437C30.9835 29.3167 30.9943 29.0036 32.0107 28.428C33.027 27.8525 34.865 27.1585 37.4599 26.5999C42.6388 25.4742 50.8343 24.704 61.8517 24.704ZM7.1864 28.3603C3.67251 28.3603 0.699219 30.6879 0.699219 33.4386V45.3556C0.699219 48.1148 3.67251 50.4339 7.1864 50.4339H11.3382C14.8629 50.4339 17.8254 48.1064 17.8254 45.3556V33.4386C17.8254 30.6794 14.8521 28.3603 11.3382 28.3603H7.1864ZM117.901 28.3603C114.387 28.3603 111.414 30.6794 111.414 33.4386V45.3556C111.414 48.1064 114.376 50.4339 117.901 50.4339H122.053C125.567 50.4339 128.54 48.1148 128.54 45.3556V33.4386C128.54 30.6879 125.577 28.3603 122.053 28.3603H117.901ZM7.1864 33.1H11.3382C11.6193 33.1 11.7707 33.2185 11.7707 33.4386V45.3556C11.7707 45.5757 11.6193 45.6942 11.3382 45.6942H7.1864C6.90529 45.6942 6.75392 45.5757 6.75392 45.3556V33.4386C6.75392 33.2185 6.90529 33.1 7.1864 33.1ZM117.901 33.1H122.053C122.334 33.1 122.485 33.2185 122.485 33.4386V45.3556C122.485 45.5757 122.334 45.6942 122.053 45.6942H117.901C117.62 45.6942 117.468 45.5757 117.468 45.3556V33.4386C117.468 33.2185 117.62 33.1 117.901 33.1ZM27.3399 50.4339C31.6647 51.0179 43.9038 52.3975 64.6195 52.3975C85.3352 52.3975 97.5744 51.0179 101.899 50.4339L103.37 59.1685C103.543 60.2604 104.732 61.0729 106.137 61.0644H111.068C114.333 61.0644 117.133 62.334 118.679 64.3145C114.182 62.2663 108.938 61.0644 103.37 61.0644C97.196 61.0644 91.4656 62.5117 86.6759 64.9916V62.4186C86.6759 59.3463 83.4215 56.7987 79.4968 56.7987H49.7423C45.8175 56.7987 42.5631 59.3463 42.5631 62.4186V72.7106C42.5631 75.783 45.8175 78.3306 49.7423 78.3306H74.1341C73.6151 79.7525 73.2691 81.2167 73.0961 82.7318H9.26229V67.9709C9.26229 64.0014 13.187 61.0644 18.1713 61.0644H23.1016C24.5072 61.0729 25.6965 60.2604 25.8695 59.1685L27.3399 50.4339ZM49.7423 60.9967H79.4968C80.5239 60.9967 81.3132 61.6146 81.3132 62.4186V68.5126C79.3022 70.1799 77.6371 72.0674 76.2964 74.1325H49.7423C48.7151 74.1325 47.9259 73.5147 47.9259 72.7106V62.4186C47.9259 61.6146 48.7151 60.9967 49.7423 60.9967ZM19.4688 65.3979C16.9063 65.3979 14.798 67.0483 14.798 69.0543V74.7419C14.798 76.7478 16.9063 78.3983 19.4688 78.3983H32.2701C34.8326 78.3983 36.9409 76.7478 36.9409 74.7419V69.0543C36.9409 67.0483 34.8326 65.3979 32.2701 65.3979H19.4688ZM103.37 65.3979C110.041 65.3979 116.117 67.4207 120.582 70.747C120.636 70.7978 120.69 70.8401 120.755 70.8824C125.415 74.4203 128.28 79.397 128.28 84.8985C128.28 95.6898 117.155 104.399 103.37 104.399C89.5843 104.399 78.4588 95.6898 78.4588 84.8985C78.4588 74.1071 89.5843 65.3979 103.37 65.3979ZM20.3337 69.7314H31.4052V74.0648H20.3337V69.7314ZM117.209 76.9764L101.467 89.2997L91.6062 81.5807L87.6274 84.6276L99.5638 93.904L101.467 95.4613L103.456 93.904L121.188 80.091L117.209 76.9764ZM9.26229 87.0652H73.0961C73.3556 89.342 74.0584 91.5172 75.0855 93.5654H9.26229V87.4038C9.2731 87.2937 9.2731 87.1752 9.26229 87.0652ZM9.26229 97.8989H25.8695V102.232C25.8695 103.451 24.6585 104.399 23.1016 104.399H12.0302C10.4732 104.399 9.26229 103.451 9.26229 102.232V97.8989Z" fill="#3D4987"/>
</svg>
