<svg width="52" height="36" viewBox="0 0 52 36" fill="none" xmlns="http://www.w3.org/2000/svg">
<path d="M39.1407 6.26281C38.4914 5.72077 37.5987 5.40079 36.6538 5.37139H34.8452V3.58856C34.861 3.23402 34.7841 2.88071 34.6192 2.55062C34.4544 2.22053 34.2052 1.92073 33.8871 1.66988C33.569 1.41903 33.1888 1.22249 32.7702 1.0925C32.3516 0.962516 31.9036 0.901861 31.454 0.914313H4.32438C3.87478 0.901861 3.42675 0.962516 3.00817 1.0925C2.58959 1.22249 2.20941 1.41903 1.8913 1.66988C1.5732 1.92073 1.32397 2.22053 1.15914 2.55062C0.994299 2.88071 0.917382 3.23402 0.933172 3.58856V27.6568C0.917382 28.0113 0.994299 28.3646 1.15914 28.6947C1.32397 29.0248 1.5732 29.3246 1.8913 29.5755C2.20941 29.8263 2.58959 30.0229 3.00817 30.1528C3.42675 30.2828 3.87478 30.3435 4.32438 30.331H6.9243C7.41622 31.6131 8.4182 32.7362 9.78211 33.5345C11.146 34.3328 12.7995 34.7638 14.498 34.7638C16.1965 34.7638 17.8499 34.3328 19.2139 33.5345C20.5778 32.7362 21.5798 31.6131 22.0717 30.331H29.5323C30.0242 31.6131 31.0262 32.7362 32.3901 33.5345C33.754 34.3328 35.4075 34.7638 37.106 34.7638C38.8045 34.7638 40.458 34.3328 41.8219 33.5345C43.1858 32.7362 44.1878 31.6131 44.6797 30.331H47.2796C47.7292 30.3435 48.1772 30.2828 48.5958 30.1528C49.0144 30.0229 49.3946 29.8263 49.7127 29.5755C50.0308 29.3246 50.28 29.0248 50.4449 28.6947C50.6097 28.3646 50.6866 28.0113 50.6708 27.6568V16.2467L39.1407 6.26281ZM36.0886 8.93705L44.3406 16.0684H34.8452V8.93705H36.0886ZM5.45478 4.47998H30.3236V25.3391C29.9921 25.7893 29.7266 26.2678 29.5323 26.7654H22.0717C21.5798 25.4833 20.5778 24.3602 19.2139 23.5619C17.8499 22.7636 16.1965 22.3326 14.498 22.3326C12.7995 22.3326 11.146 22.7636 9.78211 23.5619C8.4182 24.3602 7.41622 25.4833 6.9243 26.7654H5.45478V4.47998ZM14.498 31.2224C13.8273 31.2224 13.1716 31.0656 12.6139 30.7718C12.0563 30.4779 11.6216 30.0602 11.3649 29.5716C11.1083 29.0829 11.0411 28.5452 11.1719 28.0265C11.3028 27.5077 11.6258 27.0312 12.1 26.6572C12.5743 26.2832 13.1786 26.0285 13.8364 25.9253C14.4942 25.8222 15.1761 25.8751 15.7957 26.0775C16.4154 26.2799 16.945 26.6227 17.3177 27.0625C17.6903 27.5022 17.8892 28.0193 17.8892 28.5482C17.905 28.9027 17.8281 29.2561 17.6632 29.5861C17.4984 29.9162 17.2492 30.216 16.9311 30.4669C16.613 30.7177 16.2328 30.9143 15.8142 31.0443C15.3956 31.1742 14.9476 31.2349 14.498 31.2224ZM37.106 31.2224C36.4353 31.2224 35.7796 31.0656 35.222 30.7718C34.6643 30.4779 34.2296 30.0602 33.9729 29.5716C33.7163 29.0829 33.6491 28.5452 33.78 28.0265C33.9108 27.5077 34.2338 27.0312 34.7081 26.6572C35.1823 26.2832 35.7866 26.0285 36.4444 25.9253C37.1022 25.8222 37.7841 25.8751 38.4038 26.0775C39.0234 26.2799 39.5531 26.6227 39.9257 27.0625C40.2983 27.5022 40.4972 28.0193 40.4972 28.5482C40.513 28.9027 40.4361 29.2561 40.2712 29.5861C40.1064 29.9162 39.8572 30.216 39.5391 30.4669C39.221 30.7177 38.8408 30.9143 38.4222 31.0443C38.0036 31.1742 37.5556 31.2349 37.106 31.2224ZM44.6797 26.7654C44.1933 25.4788 43.1937 24.3503 41.8293 23.5473C40.4649 22.7444 38.8085 22.3099 37.106 22.3083C36.3392 22.3024 35.5761 22.3926 34.8452 22.5757V19.634H46.1492V26.7654H44.6797Z" fill="white" stroke="#2F3C7E" stroke-width="1.33333"/>
</svg>
