<svg width="69" height="20" viewBox="0 0 69 20" fill="none" xmlns="http://www.w3.org/2000/svg">
<path d="M16.3423 1.9198C16.1235 2.4198 15.9282 2.8573 15.7563 3.2323C15.5845 3.6073 15.436 3.92761 15.311 4.19324C15.1704 4.49011 15.0532 4.75574 14.9595 4.99011C14.8813 5.16199 14.7798 5.39636 14.6548 5.69324C14.5298 5.95886 14.3735 6.31042 14.186 6.74792C14.0142 7.1698 13.7876 7.71667 13.5063 8.38855C13.3657 7.81042 13.1938 7.30261 12.9907 6.86511C12.7876 6.42761 12.5688 6.0448 12.3345 5.71667C12.1001 5.38855 11.8501 5.12292 11.5845 4.9198C11.3345 4.70105 11.0845 4.52136 10.8345 4.38074C10.2563 4.06824 9.64697 3.89636 9.00635 3.86511C8.1626 3.91199 7.49854 4.05261 7.01416 4.28699C6.54541 4.50574 6.20166 4.76355 5.98291 5.06042C5.76416 5.34167 5.64697 5.63855 5.63135 5.95105C5.61572 6.24792 5.65479 6.49792 5.74854 6.70105C5.82666 6.88855 6.1001 7.1073 6.56885 7.3573C7.05322 7.6073 7.63135 7.89636 8.30322 8.22449C8.99072 8.53699 9.7251 8.89636 10.5063 9.30261C11.2876 9.69324 12.0063 10.1307 12.6626 10.6151C13.3345 11.0839 13.897 11.5995 14.3501 12.162C14.8188 12.7089 15.0767 13.2948 15.1235 13.9198C15.1704 14.7167 15.1626 15.4354 15.1001 16.076C15.0376 16.7167 14.8188 17.2635 14.4438 17.7167C14.0688 18.1698 13.4829 18.5292 12.686 18.7948C11.9048 19.0604 10.8188 19.2245 9.42822 19.287C7.99072 19.3495 6.81104 19.2714 5.88916 19.0526C4.96729 18.8339 4.21729 18.537 3.63916 18.162C3.07666 17.787 2.65479 17.3729 2.37354 16.9198C2.10791 16.4667 1.9126 16.037 1.7876 15.6307C1.6626 15.2089 1.57666 14.8495 1.52979 14.5526C1.48291 14.2401 1.40479 14.0526 1.29541 13.9901C1.17041 13.912 1.04541 13.8417 0.92041 13.7792C0.811035 13.7167 0.693848 13.662 0.568848 13.6151C0.443848 13.5526 0.318848 13.4979 0.193848 13.451L7.01416 12.3495C6.62354 12.662 6.31885 12.951 6.1001 13.2167C5.89697 13.4823 5.74072 13.7167 5.63135 13.9198C5.50635 14.1542 5.42041 14.3729 5.37354 14.576C5.34229 14.7948 5.4126 15.0682 5.58447 15.3964C5.75635 15.7245 5.99072 16.0448 6.2876 16.3573C6.6001 16.6542 6.95947 16.9042 7.36572 17.1073C7.77197 17.3104 8.19385 17.3964 8.63135 17.3651C9.17822 17.3182 9.62354 17.1854 9.96729 16.9667C10.311 16.7323 10.5688 16.4432 10.7407 16.0995C10.9282 15.7557 11.0376 15.3807 11.0688 14.9745C11.1001 14.5682 11.061 14.1698 10.9517 13.7792C10.8579 13.3729 10.7017 12.9979 10.4829 12.6542C10.2642 12.2948 10.0063 11.9979 9.70947 11.7635C9.44385 11.576 9.02979 11.3964 8.46729 11.2245C7.92041 11.0526 7.30322 10.8651 6.61572 10.662C5.94385 10.4589 5.24854 10.2245 4.52979 9.95886C3.82666 9.69324 3.18604 9.36511 2.60791 8.97449C2.04541 8.58386 1.59229 8.12292 1.24854 7.59167C0.92041 7.06042 0.79541 6.4198 0.873535 5.6698C0.936035 5.02917 1.13916 4.49792 1.48291 4.07605C1.84229 3.63855 2.2876 3.2948 2.81885 3.0448C3.36572 2.77917 3.96729 2.58386 4.62354 2.45886C5.29541 2.33386 5.9751 2.26355 6.6626 2.24792C7.36572 2.21667 8.05322 2.22449 8.7251 2.27136C9.4126 2.31824 10.0298 2.37292 10.5767 2.43542C11.1235 2.49792 11.5845 2.56042 11.9595 2.62292C12.3501 2.6698 12.5923 2.70105 12.686 2.71667C13.0923 2.74792 13.4985 2.74011 13.9048 2.69324C14.2642 2.66199 14.6548 2.59167 15.0767 2.4823C15.5142 2.3573 15.936 2.1698 16.3423 1.9198ZM20.516 15.3026C20.9535 15.3026 21.3598 15.2557 21.7348 15.162C22.0473 15.0839 22.3442 14.9589 22.6254 14.787C22.9223 14.5995 23.1176 14.326 23.2113 13.9667C23.5238 14.0292 23.7895 14.0839 24.0082 14.1307C24.227 14.162 24.4145 14.1932 24.5707 14.2245C24.7426 14.2714 24.891 14.3026 25.016 14.3182C25.141 14.3495 25.2895 14.3807 25.4613 14.412C25.6176 14.4432 25.8051 14.4823 26.0238 14.5292C26.2582 14.5604 26.5317 14.6073 26.8442 14.6698C26.6098 14.6385 26.3676 14.662 26.1176 14.7401C25.8832 14.8182 25.6567 14.9042 25.4379 14.9979C25.1879 15.1073 24.9535 15.2401 24.7348 15.3964C24.5942 15.4901 24.4301 15.6307 24.2426 15.8182C24.0707 16.0057 23.8207 16.1854 23.4926 16.3573C23.1645 16.5292 22.727 16.6776 22.1801 16.8026C21.6488 16.912 20.9613 16.951 20.1176 16.9198C19.102 16.8885 18.2504 16.7089 17.5629 16.3807C16.8754 16.037 16.3207 15.6229 15.8988 15.1385C15.477 14.6385 15.1723 14.0995 14.9848 13.5214C14.7973 12.9432 14.6957 12.4042 14.6801 11.9042C14.6645 11.4042 14.8129 10.8807 15.1254 10.3339C15.4379 9.78699 15.8754 9.28699 16.4379 8.83386C17.016 8.38074 17.7113 8.01355 18.5238 7.7323C19.3363 7.43542 20.227 7.28699 21.1957 7.28699C21.7582 7.28699 22.2738 7.3573 22.7426 7.49792C23.227 7.62292 23.6645 7.7948 24.0551 8.01355C24.4613 8.2323 24.8129 8.4823 25.1098 8.76355C25.4067 9.02917 25.6567 9.30261 25.8598 9.58386C26.0629 9.88074 26.2348 10.1932 26.3754 10.5214C26.5004 10.8026 26.602 11.1229 26.6801 11.4823C26.7582 11.8417 26.7817 12.2089 26.7504 12.5839C25.5629 12.6151 24.602 12.6385 23.8676 12.6542C23.1488 12.6698 22.5863 12.6776 22.1801 12.6776H21.1254H20.3285C20.0473 12.6776 19.6801 12.6854 19.227 12.701C18.7738 12.7167 18.2192 12.7401 17.5629 12.7714C17.641 13.3964 17.8363 13.8807 18.1488 14.2245C18.477 14.5526 18.8207 14.8026 19.1801 14.9745C19.5863 15.162 20.0317 15.2714 20.516 15.3026ZM18.4067 11.0839C18.9067 11.1151 19.3207 11.1385 19.6488 11.1542C19.9926 11.1698 20.2738 11.1854 20.4926 11.201C20.727 11.2167 20.9145 11.2245 21.0551 11.2245H21.641C22.0317 11.2245 22.7582 11.201 23.8207 11.1542C23.7738 10.4667 23.6254 9.94324 23.3754 9.58386C23.141 9.22449 22.891 8.95886 22.6254 8.78699C22.3129 8.59949 21.9692 8.49011 21.5942 8.45886C20.5785 8.47449 19.8207 8.68542 19.3207 9.09167C18.8363 9.49792 18.5317 10.162 18.4067 11.0839ZM26.4945 16.4979C26.6038 15.9823 26.682 15.5292 26.7288 15.1385C26.7913 14.7323 26.8382 14.3964 26.8695 14.1307C26.9007 13.8182 26.9163 13.5526 26.9163 13.3339C26.9007 13.0682 26.8851 12.7557 26.8695 12.3964C26.8695 12.0214 26.8538 11.6542 26.8226 11.2948C26.807 10.9198 26.7835 10.5917 26.7523 10.3104C26.721 10.0135 26.682 9.80261 26.6351 9.67761C26.5726 9.55261 26.4867 9.4198 26.3773 9.27917C26.1585 9.01355 25.8382 8.75574 25.4163 8.50574C25.7757 8.42761 26.0804 8.36511 26.3304 8.31824C26.596 8.25574 26.8148 8.20105 26.9867 8.15417C27.1742 8.09167 27.3382 8.03699 27.4788 7.99011C27.6038 7.94324 27.7523 7.89636 27.9242 7.84949C28.0648 7.81824 28.2367 7.77917 28.4398 7.7323C28.6429 7.68542 28.8773 7.63074 29.1429 7.56824L29.0726 9.70105C29.5726 9.1073 30.0804 8.66199 30.596 8.36511C31.1117 8.06824 31.596 7.8573 32.0492 7.7323C32.5648 7.57605 33.0726 7.49792 33.5726 7.49792C34.1976 7.52917 34.7757 7.63074 35.307 7.80261C35.8538 7.97449 36.3226 8.17761 36.7132 8.41199C37.1195 8.63074 37.4476 8.86511 37.6976 9.11511C37.9476 9.36511 38.096 9.58386 38.1429 9.77136C38.3304 10.3807 38.3773 10.9432 38.2835 11.4589C38.1898 11.9589 38.0648 12.451 37.9085 12.9354C37.7679 13.4042 37.6429 13.8729 37.5335 14.3417C37.4398 14.8104 37.4788 15.3182 37.6507 15.8651C37.7132 16.0057 37.7757 16.1464 37.8382 16.287C37.9007 16.412 37.9788 16.537 38.0726 16.662C38.1663 16.787 38.2757 16.8885 38.4007 16.9667C38.2288 16.951 38.057 16.9432 37.8851 16.9432C37.7132 16.9276 37.557 16.912 37.4163 16.8964C37.2445 16.8807 37.0882 16.8651 36.9476 16.8495C36.7913 16.8339 36.5804 16.826 36.3148 16.826C35.8617 16.826 35.1585 16.8495 34.2054 16.8964C34.346 16.5682 34.4554 16.2948 34.5335 16.076C34.6273 15.8417 34.7054 15.6542 34.7679 15.5135C34.8304 15.3417 34.8773 15.2089 34.9085 15.1151C35.096 14.662 35.2054 14.1464 35.2367 13.5682C35.2835 12.9901 35.2445 12.4042 35.1195 11.8104C35.0726 11.6073 34.9945 11.3651 34.8851 11.0839C34.7757 10.8026 34.6273 10.5292 34.4398 10.2635C34.2679 9.99792 34.057 9.77136 33.807 9.58386C33.5726 9.39636 33.2992 9.28699 32.9867 9.25574C32.6742 9.22449 32.3226 9.30261 31.932 9.49011C31.557 9.67761 31.1507 10.0214 30.7132 10.5214C30.3851 10.9432 30.1273 11.4589 29.9398 12.0682C29.7679 12.5839 29.6507 13.2323 29.5882 14.0135C29.5257 14.7792 29.6195 15.6776 29.8695 16.7089C29.6507 16.6776 29.4476 16.662 29.2601 16.662C29.0726 16.6464 28.9163 16.6307 28.7913 16.6151C28.6351 16.5995 28.4945 16.5839 28.3695 16.5682C28.2288 16.5682 28.0726 16.5604 27.9007 16.5448C27.7445 16.5448 27.5492 16.5448 27.3148 16.5448C27.0804 16.5292 26.807 16.5135 26.4945 16.4979ZM49.1838 1.12292C49.4807 1.13855 49.801 1.14636 50.1448 1.14636C50.4417 1.14636 50.7776 1.15417 51.1526 1.1698C51.5432 1.1698 51.9495 1.15417 52.3713 1.12292C51.9963 1.2948 51.6682 1.5448 51.387 1.87292C51.1057 2.20105 50.8792 2.52917 50.7073 2.8573C50.4885 3.24792 50.3088 3.65417 50.1682 4.07605C50.0901 4.32605 50.0276 4.77136 49.9807 5.41199C49.9338 6.03699 49.8948 6.77136 49.8635 7.61511C49.8479 8.45886 49.8401 9.34949 49.8401 10.287C49.8401 11.2245 49.8479 12.1229 49.8635 12.9823C49.8792 13.826 49.9026 14.576 49.9338 15.2323C49.9651 15.8885 50.0042 16.3495 50.051 16.6151C50.1135 16.9276 50.1917 17.2245 50.2854 17.5057C50.3635 17.7557 50.4651 18.0135 50.5901 18.2792C50.7151 18.5292 50.8713 18.7323 51.0588 18.8885L48.6682 19.9667C48.5432 19.7948 48.4417 19.6151 48.3635 19.4276C48.2854 19.2557 48.2229 19.0995 48.176 18.9589C48.1135 18.787 48.0745 18.6307 48.0588 18.4901C48.0276 18.3026 47.9963 18.0995 47.9651 17.8807C47.9338 17.6464 47.8948 17.4276 47.8479 17.2245C47.8167 17.0057 47.7932 16.826 47.7776 16.6854C47.762 16.5448 47.762 16.4589 47.7776 16.4276C47.7932 16.3964 47.6995 16.537 47.4963 16.8495C47.2932 17.1464 46.9885 17.4979 46.5823 17.9042C46.1917 18.2948 45.7073 18.6776 45.1292 19.0526C44.551 19.412 43.9026 19.6385 43.1838 19.7323C42.4495 19.826 41.7698 19.6854 41.1448 19.3104C40.5354 18.9354 40.012 18.412 39.5745 17.7401C39.137 17.0526 38.801 16.2635 38.5667 15.3729C38.3479 14.4667 38.262 13.5448 38.3088 12.6073C38.3401 11.9823 38.4807 11.4276 38.7307 10.9432C38.9807 10.4432 39.2932 10.0135 39.6682 9.65417C40.0588 9.27917 40.4807 8.96667 40.9338 8.71667C41.4026 8.45105 41.8557 8.2323 42.2932 8.06042C42.7463 7.88855 43.1682 7.76355 43.5588 7.68542C43.9495 7.6073 44.262 7.55261 44.4963 7.52136C44.7776 7.50574 45.0979 7.55261 45.4573 7.66199C45.7698 7.75574 46.1292 7.91199 46.5354 8.13074C46.9573 8.34949 47.426 8.67761 47.9417 9.11511C47.8479 7.55261 47.762 6.30261 47.6838 5.36511C47.6057 4.41199 47.5276 3.68542 47.4495 3.18542C47.3713 2.59167 47.301 2.18542 47.2385 1.96667C47.1604 1.81042 47.0588 1.65417 46.9338 1.49792C46.8245 1.37292 46.6838 1.24792 46.512 1.12292C46.3557 0.9823 46.1682 0.872925 45.9495 0.7948C46.3557 0.872925 46.7463 0.927612 47.1213 0.958862C47.4963 0.990112 47.8401 1.02136 48.1526 1.05261C48.512 1.08386 48.8557 1.1073 49.1838 1.12292ZM43.301 9.86511C43.0042 9.97449 42.762 10.162 42.5745 10.4276C42.4026 10.6932 42.262 11.0135 42.1526 11.3885C42.0432 11.7479 41.9651 12.1385 41.9182 12.5604C41.887 12.9667 41.8635 13.3651 41.8479 13.7557C41.8479 14.1307 41.8479 14.4745 41.8479 14.787C41.8479 15.0995 41.8479 15.3339 41.8479 15.4901C41.8479 15.5839 41.8635 15.7557 41.8948 16.0057C41.9417 16.2401 42.0354 16.4901 42.176 16.7557C42.3167 17.0057 42.512 17.2323 42.762 17.4354C43.0276 17.6385 43.3792 17.7401 43.8167 17.7401C44.176 17.7089 44.5588 17.5839 44.9651 17.3651C45.3245 17.1776 45.7307 16.8807 46.1838 16.4745C46.6526 16.0526 47.1526 15.451 47.6838 14.6698C47.6526 14.1698 47.6292 13.7557 47.6135 13.4276C47.6135 13.0995 47.6057 12.8339 47.5901 12.6307C47.5745 12.3964 47.5667 12.2089 47.5667 12.0682V11.7167C47.5667 11.6229 47.5667 11.5214 47.5667 11.412C47.5667 11.3026 47.5745 11.201 47.5901 11.1073C47.1526 10.7948 46.762 10.5292 46.4182 10.3104C46.0901 10.076 45.762 9.90417 45.4338 9.7948C45.1213 9.6698 44.7932 9.61511 44.4495 9.63074C44.1213 9.63074 43.7385 9.70886 43.301 9.86511ZM49.842 2.92761C50.3732 2.99011 50.8185 3.03699 51.1779 3.06824C51.5529 3.08386 51.8576 3.1073 52.092 3.13855C52.3732 3.1698 52.592 3.18542 52.7482 3.18542C52.9201 3.20105 53.1779 3.19324 53.5217 3.16199C53.8185 3.13074 54.217 3.09167 54.717 3.0448C55.2326 2.99792 55.8888 2.92761 56.6857 2.83386C56.3263 3.14636 56.0373 3.45105 55.8185 3.74792C55.6154 4.02917 55.4592 4.27917 55.3498 4.49792C55.2092 4.76355 55.1232 5.01355 55.092 5.24792C55.0295 5.62292 54.9748 6.13855 54.9279 6.7948C54.8967 7.43542 54.8654 8.13855 54.8342 8.90417C54.8029 9.6698 54.7873 10.4589 54.7873 11.2714C54.7873 12.0839 54.7951 12.8573 54.8107 13.5917C54.842 14.3104 54.8888 14.951 54.9513 15.5135C55.0295 16.076 55.1232 16.4823 55.2326 16.7323C55.3888 17.0135 55.5529 17.2948 55.7248 17.576C55.881 17.8104 56.0685 18.0526 56.2873 18.3026C56.506 18.5526 56.756 18.7557 57.0373 18.912C56.1154 18.8651 55.381 18.8417 54.8342 18.8417H53.9904C53.7404 18.8417 53.4201 18.8573 53.0295 18.8885C52.7013 18.9198 52.2873 18.951 51.7873 18.9823C51.2873 19.0135 50.6857 19.0604 49.9826 19.1229C50.342 18.7323 50.6232 18.3573 50.8263 17.9979C51.0295 17.6385 51.1935 17.326 51.3185 17.0604C51.4592 16.7479 51.5529 16.451 51.5998 16.1698C51.6623 15.7635 51.7092 15.2635 51.7404 14.6698C51.7873 14.0604 51.8185 13.412 51.8342 12.7245C51.8498 12.0214 51.8498 11.3104 51.8342 10.5917C51.8342 9.8573 51.8185 9.15417 51.7873 8.4823C51.756 7.81042 51.7092 7.20105 51.6467 6.65417C51.5998 6.1073 51.5373 5.6698 51.4592 5.34167C51.4123 5.13855 51.3185 4.91199 51.1779 4.66199C51.0529 4.44324 50.881 4.19324 50.6623 3.91199C50.4592 3.61511 50.1857 3.28699 49.842 2.92761ZM54.7657 1.96667C55.8126 2.09167 56.7188 2.18542 57.4845 2.24792C58.2501 2.2948 58.8829 2.33386 59.3829 2.36511C59.961 2.39636 60.4454 2.40417 60.836 2.38855C61.2423 2.37292 61.797 2.33386 62.5001 2.27136C63.0938 2.22449 63.8751 2.16199 64.8438 2.08386C65.8126 1.99011 67.0235 1.86511 68.4767 1.70886C68.4923 2.06824 68.5001 2.4198 68.5001 2.76355C68.5157 3.09167 68.5313 3.38074 68.547 3.63074C68.5626 3.92761 68.5704 4.20105 68.5704 4.45105C68.5704 4.71667 68.5548 5.05261 68.5235 5.45886C68.4923 5.80261 68.4376 6.24011 68.3595 6.77136C68.297 7.28699 68.1954 7.90417 68.0548 8.62292C67.836 7.77917 67.6251 7.09949 67.422 6.58386C67.2188 6.05261 67.0313 5.63074 66.8595 5.31824C66.672 4.95886 66.4845 4.68542 66.297 4.49792C66.0938 4.3573 65.8517 4.24011 65.5704 4.14636C65.3204 4.06824 65.0001 4.00574 64.6095 3.95886C64.2345 3.91199 63.7892 3.9198 63.2735 3.9823C63.1954 6.0448 63.1407 7.71667 63.1095 8.99792C63.0782 10.2792 63.0548 11.2792 63.0392 11.9979C63.0235 12.8573 63.0157 13.4745 63.0157 13.8495C63.0313 14.3807 63.1173 14.9042 63.2735 15.4198C63.3985 15.8573 63.6017 16.3104 63.8829 16.7792C64.1642 17.2479 64.5704 17.662 65.1017 18.0214H62.2423C61.9767 18.0214 61.6485 18.037 61.2579 18.0682C60.9298 18.0995 60.5079 18.1307 59.9923 18.162C59.4923 18.1932 58.9063 18.2479 58.2345 18.326C58.4688 17.9198 58.6563 17.5526 58.797 17.2245C58.9376 16.8964 59.047 16.6151 59.1251 16.3807C59.2188 16.0995 59.2892 15.8495 59.336 15.6307C59.3517 15.3182 59.3907 14.6854 59.4532 13.7323C59.4688 13.3417 59.4845 12.8573 59.5001 12.2792C59.5313 11.701 59.5626 11.0135 59.5938 10.2167C59.6407 9.4198 59.6798 8.50574 59.711 7.47449C59.7579 6.42761 59.8048 5.24792 59.8517 3.93542C59.5704 3.8573 59.3048 3.86511 59.0548 3.95886C58.8048 4.03699 58.586 4.13855 58.3985 4.26355C58.1798 4.4198 57.9688 4.6073 57.7657 4.82605C57.5626 5.09167 57.336 5.43542 57.086 5.8573C56.8673 6.21667 56.6173 6.69324 56.336 7.28699C56.0548 7.86511 55.7345 8.58386 55.3751 9.44324C55.297 8.53699 55.2423 7.7948 55.211 7.21667C55.1798 6.62292 55.1563 6.16199 55.1407 5.83386C55.1251 5.44324 55.1173 5.15417 55.1173 4.96667C55.1173 4.7948 55.1017 4.56824 55.0704 4.28699C55.0392 4.05261 55.0001 3.74792 54.9532 3.37292C54.9063 2.9823 54.8438 2.51355 54.7657 1.96667Z" fill="white"/>
</svg>
