<svg width="140" height="112" viewBox="0 0 140 112" fill="none" xmlns="http://www.w3.org/2000/svg">
<path d="M96.972 30.5416C96.972 17.7944 84.0082 7.43726 68.0527 7.43726C52.0972 7.43726 40.1306 17.7944 40.1306 30.5416C40.1306 38.5086 68.0527 69.5799 68.0527 69.5799C68.0527 69.5799 96.972 39.3053 96.972 30.5416Z" fill="#2F3C7E"/>
<path d="M68.0527 77.5469L65.061 74.3601C60.075 68.7832 35.1445 40.8987 35.1445 32.135C35.1445 17.7944 50.1028 5.84387 68.0527 5.84387C86.0026 5.84387 100.961 17.7944 100.961 32.135C100.961 41.6954 76.0304 68.7832 70.0471 74.3601L68.0527 77.5469ZM68.0527 11.4208C54.0917 11.4208 42.1251 20.1845 42.1251 32.135C42.1251 36.9152 56.0861 54.4426 68.0527 67.1898C80.0193 54.4426 93.9803 36.9152 93.9803 32.135C93.9803 20.1845 82.0137 11.4208 68.0527 11.4208Z" fill="#3D4987"/>
<path d="M126.888 89.4974H14.2029C8.21963 89.4974 2.23633 85.5139 2.23633 79.937C2.23633 74.3601 7.22241 70.3766 14.2029 70.3766H33.1501C35.1445 70.3766 37.1389 71.97 37.1389 73.5634C37.1389 75.1568 36.1417 76.7502 34.1473 76.7502H14.2029C12.2085 76.7502 10.2141 78.3436 10.2141 79.937C10.2141 81.5304 12.2085 83.1238 14.2029 83.1238H125.891C127.886 83.1238 129.88 84.7172 129.88 86.3106C129.88 87.904 128.883 89.4974 126.888 89.4974Z" fill="#3D4987"/>
<path d="M126.889 102.245H31.1557C29.1612 102.245 27.1668 100.651 27.1668 99.0578C27.1668 97.4644 29.1612 95.871 31.1557 95.871H125.891C127.886 95.871 129.88 94.2776 129.88 92.6842C129.88 91.0908 127.886 89.4974 125.891 89.4974H14.203C12.2085 89.4974 10.2141 87.904 10.2141 86.3106C10.2141 84.7172 12.2085 83.1238 14.203 83.1238H125.891C131.875 83.1238 137.858 87.1073 137.858 92.6842C137.858 98.2611 132.872 102.245 126.889 102.245Z" fill="#2F3C7E"/>
<path d="M57.0833 28.9482C57.0831 30.0991 57.3667 31.2388 57.9179 32.3022C58.4691 33.3656 59.2771 34.3318 60.2957 35.1457C61.3143 35.9595 62.5236 36.6052 63.8546 37.0456C65.1855 37.4861 66.612 37.7128 68.0526 37.7128C69.4933 37.7128 70.9198 37.4861 72.2507 37.0456C73.5817 36.6052 74.791 35.9595 75.8096 35.1457C76.8282 34.3318 77.6362 33.3656 78.1874 32.3022C78.7386 31.2388 79.0222 30.0991 79.022 28.9482C79.0222 27.7972 78.7386 26.6575 78.1874 25.5941C77.6362 24.5308 76.8282 23.5645 75.8096 22.7506C74.791 21.9368 73.5817 21.2911 72.2507 20.8507C70.9198 20.4102 69.4933 20.1835 68.0526 20.1835C66.612 20.1835 65.1855 20.4102 63.8546 20.8507C62.5236 21.2911 61.3143 21.9368 60.2957 22.7506C59.2771 23.5645 58.4691 24.5308 57.9179 25.5941C57.3667 26.6575 57.0831 27.7972 57.0833 28.9482Z" fill="#FDFBFB"/>
<path d="M68.0526 40.102C60.0749 40.102 54.0916 35.3218 54.0916 28.9482C54.0916 22.5746 60.0749 17.7944 68.0526 17.7944C76.0303 17.7944 82.0136 22.5746 82.0136 28.9482C82.0136 35.3218 76.0303 40.102 68.0526 40.102ZM68.0526 23.3713C64.0637 23.3713 61.0721 25.7614 61.0721 28.9482C61.0721 32.135 64.0637 34.5251 68.0526 34.5251C72.0415 34.5251 75.0331 32.135 75.0331 28.9482C75.0331 25.7614 72.0415 23.3713 68.0526 23.3713Z" fill="#2F3C7E"/>
</svg>
