<svg width="139" height="88" viewBox="0 0 139 88" fill="none" xmlns="http://www.w3.org/2000/svg">
<rect y="0.877029" width="138.6" height="86.6375" rx="20" fill="white"/>
<path d="M99.9938 19.6438L48.1552 35.0687V44.9739L39.112 42.4288V32.5236L90.9506 17.0988L73.5392 12.1988C71.2077 11.5427 67.3929 11.5427 65.0615 12.1988L22.1868 24.2649C18.7711 25.2262 15.9837 27.9483 15.9925 30.3144L16.098 58.6007C16.1069 60.9919 18.9564 63.717 22.4302 64.657L65.1925 76.2272C67.4476 76.8374 71.1381 76.8374 73.3934 76.2275L116.17 64.6569C119.644 63.7174 122.494 60.9924 122.502 58.6013L122.608 30.3144C122.617 27.9483 119.83 25.2262 116.414 24.2649L99.9938 19.6438ZM112.922 42.2855L110.413 43.0223L110.362 54.1979C110.36 54.6862 109.678 55.2675 108.842 55.496L105.085 56.5224C104.262 56.7475 103.595 56.5389 103.595 56.0568L103.582 45.0281L101.152 45.7418C100.009 46.0774 99.2932 45.5511 99.8607 44.7934L105.67 37.0357C106.257 36.2526 107.727 35.8009 108.315 36.2256L114.277 40.5272C114.872 40.9566 114.117 41.9347 112.922 42.2855ZM88.3929 60.2328C88.3994 60.7007 87.7745 61.2516 86.9991 61.4636L83.5156 62.4154C82.7517 62.6241 82.1268 62.4186 82.1181 61.9567L81.9141 51.3906L79.6602 52.0524C78.6001 52.3636 77.9237 51.853 78.4397 51.1323L83.7199 43.7578C84.2525 43.0139 85.6141 42.5955 86.1697 43.0075L91.7968 47.1794C92.3588 47.5958 91.6727 48.5248 90.5665 48.8495L88.2429 49.5319L88.3929 60.2328ZM117.069 57.1648C117.066 57.4103 116.717 57.7013 116.29 57.8149L76.5018 68.3947C76.1305 68.4935 75.8251 68.39 75.8197 68.1636L75.7893 66.9328C75.7837 66.7059 76.0802 66.4407 76.4521 66.3405L116.311 55.5935C116.739 55.4781 117.085 55.584 117.082 55.8301L117.069 57.1648Z" fill="#2F3C7E"/>
</svg>
